HIERARCHY
ROOT Hips
{
	OFFSET 0.000000 0.000000 0.000000 
	CHANNELS 6 Xposition Yposition Zposition Zrotation Yrotation Xrotation
	JOINT LeftUpLeg
	{
		OFFSET 1.363060 -1.794630 0.839290 
		CHANNELS 3 Zrotation Yrotation Xrotation
		JOINT LeftLeg
		{
			OFFSET 2.448110 -6.726130 0.000000 
			CHANNELS 3 Zrotation Yrotation Xrotation
			JOINT LeftFoot
			{
				OFFSET 2.562200 -7.039590 0.000000 
				CHANNELS 3 Zrotation Yrotation Xrotation
				JOINT LeftToeBase
				{
					OFFSET 0.157640 -0.433110 2.322550 
					CHANNELS 3 Zrotation Yrotation Xrotation
					End Site
					{
						OFFSET 0.000000 0.000000 0.000000 
					}
				}
			}
		}
	}
	JOINT RightUpLeg
	{
		OFFSET -1.305520 -1.794630 0.839290 
		CHANNELS 3 Zrotation Yrotation Xrotation
		JOINT RightLeg
		{
			OFFSET -2.542530 -6.985550 0.000000 
			CHANNELS 3 Zrotation Yrotation Xrotation
			JOINT RightFoot
			{
				OFFSET -2.568260 -7.056230 0.000000 
				CHANNELS 3 Zrotation Yrotation Xrotation
				JOINT RightToeBase
				{
					OFFSET -0.164730 -0.452590 2.363150 
					CHANNELS 3 Zrotation Yrotation Xrotation
					End Site
					{
						OFFSET 0.000000 0.000000 0.000000 
					}
				}
			}
		}
	}
	JOINT Spine
	{
		OFFSET 0.028270 2.035590 -0.193380 
		CHANNELS 3 Zrotation Yrotation Xrotation
		JOINT Spine1
		{
			OFFSET 0.056720 2.048850 -0.042750 
			CHANNELS 3 Zrotation Yrotation Xrotation
			JOINT Neck1
			{
				OFFSET -0.054170 1.746240 0.172020 
				CHANNELS 3 Zrotation Yrotation Xrotation
				JOINT Head
				{
					OFFSET 0.104070 1.761360 -0.123970 
					CHANNELS 3 Zrotation Yrotation Xrotation
					End Site
					{
						OFFSET 0.000000 0.000000 0.000000 
					}
				}
			}
			JOINT LeftArm
			{
				OFFSET 3.362410 1.200890 -0.311210 
				CHANNELS 3 Zrotation Yrotation Xrotation
				JOINT LeftForeArm
				{
					OFFSET 4.983000 -0.000000 -0.000000 
					CHANNELS 3 Zrotation Yrotation Xrotation
					JOINT LeftHand
					{
						OFFSET 3.483560 -0.000000 -0.000000 
						CHANNELS 3 Zrotation Yrotation Xrotation
						JOINT LeftHandIndex1
						{
							OFFSET 0.715260 -0.000000 -0.000000 
							CHANNELS 3 Zrotation Yrotation Xrotation
							End Site
							{
								OFFSET 0.000000 0.000000 0.000000 
							}
						}
					}
				}
			}
			JOINT RightArm
			{
				OFFSET -3.136600 1.374050 -0.404650 
				CHANNELS 3 Zrotation Yrotation Xrotation
				JOINT RightForeArm
				{
					OFFSET -5.241900 -0.000000 -0.000000 
					CHANNELS 3 Zrotation Yrotation Xrotation
					JOINT RightHand
					{
						OFFSET -3.444170 -0.000000 -0.000000 
						CHANNELS 3 Zrotation Yrotation Xrotation
						JOINT RightHandIndex1
						{
							OFFSET -0.622530 -0.000000 -0.000000 
							CHANNELS 3 Zrotation Yrotation Xrotation
							End Site
							{
								OFFSET 0.000000 0.000000 0.000000 
							}
						}
					}
				}
			}
		}
	}
}
MOTION
Frames: 18
Frame Time: 0.041667
9.803573 4.569268 9.782724 -2.153674 0.278159 -112.277980 -11.940572 4.599507 23.481826 4.669856 8.697520 24.062185 4.478619 5.622288 -33.170518 5.995400 14.423800 44.963100 9.709371 -17.428890 43.218735 -2.436931 -0.581494 -4.293125 -6.371974 -9.495217 -46.966470 -6.469200 -14.868100 46.837100 -12.943394 2.125069 28.212035 -0.353426 0.793081 -21.046203 23.707970 7.465428 -12.106057 4.231000 2.091000 -1.347900 -53.884042 -2.644242 -47.088533 128.717608 -46.441674 -84.222872 0.751920 2.171327 -42.342001 -7.125000 0.000000 0.000000 68.661187 -14.309235 0.915638 -138.116475 41.791528 -98.012275 -1.095072 -0.760019 -15.666884 7.125000 0.000000 0.000000 
9.798652 4.563630 9.808047 -2.282156 0.378180 -112.519548 -11.462881 5.038885 23.467400 4.603956 8.775751 24.188654 4.461887 5.836698 -32.510797 5.417000 13.838600 42.594700 9.575611 -17.545431 43.600411 -2.485148 -0.525712 -4.272010 -6.272396 -7.381664 -47.828880 -7.133800 -15.443500 49.378600 -13.715104 2.379785 28.161927 -0.464273 0.785775 -21.263137 23.628306 7.142713 -11.528187 4.176200 1.981200 -1.246200 -53.029362 -3.447210 -48.721017 128.068902 -46.643471 -83.564950 0.743231 2.361516 -43.020269 -7.125000 0.000000 0.000000 69.139135 -14.765108 -0.986270 -138.567566 41.497465 -98.341821 -1.102655 -0.798201 -16.689402 7.125000 0.000000 0.000000 
9.794893 4.561930 9.801068 -2.319209 0.379130 -112.610225 -10.881667 5.607367 23.350576 4.532700 8.836319 24.257146 4.417399 5.660053 -32.340844 5.078900 13.472100 41.162500 9.587753 -17.625466 43.675270 -2.441040 -0.560578 -4.258372 -6.340041 -8.115686 -47.791575 -6.930300 -15.272900 48.610300 -14.277113 2.657867 28.079363 -0.627790 0.809223 -21.210130 23.109144 6.917029 -12.144456 4.046000 1.823400 -1.368100 -51.892338 -4.941060 -50.407559 126.693267 -47.242671 -81.732823 0.532387 2.545397 -41.619580 -7.125000 0.000000 0.000000 69.550375 -15.155752 -2.913313 -138.910646 41.221627 -98.579651 -1.108823 -0.848700 -17.850469 7.125000 0.000000 0.000000 
9.792746 4.560230 9.790151 -2.288223 0.259497 -112.526099 -10.430183 5.820231 23.186014 4.522582 8.867706 24.344908 4.387671 5.176088 -32.959217 4.996600 13.379900 40.807800 9.847349 -17.664643 43.509090 -2.424844 -0.597427 -4.250775 -6.393186 -8.938463 -47.613876 -6.706700 -15.079900 47.756300 -14.515329 2.863359 27.925195 -0.799223 0.836511 -21.040431 22.434229 6.779262 -13.268705 3.899500 1.673400 -1.592600 -51.326661 -6.642915 -52.773738 125.217035 -47.986252 -79.579944 0.337706 2.650135 -36.329470 -7.125000 0.000000 0.000000 69.775272 -15.528437 -4.615644 -139.118956 41.000898 -98.703507 -1.113554 -0.882921 -18.966757 7.125000 0.000000 0.000000 
9.791851 4.556830 9.779502 -2.211507 0.154846 -112.579172 -9.951250 6.203633 23.240842 4.456409 8.851356 24.223262 4.349199 4.747509 -33.413892 4.695900 13.032900 39.491700 9.988367 -17.674551 43.484160 -2.395104 -0.632695 -4.227649 -6.429194 -9.751672 -47.343354 -6.499200 -14.895200 46.953800 -14.487891 2.973412 27.909545 -0.873524 0.870878 -21.039955 21.516029 6.640216 -14.176321 3.717900 1.568900 -1.785100 -51.096978 -7.682893 -54.506331 124.474168 -48.413406 -78.375624 0.237438 2.670684 -32.317237 -7.125000 0.000000 0.000000 69.797992 -15.753507 -6.074645 -139.242182 40.851964 -98.749361 -1.112381 -0.913778 -19.797168 7.125000 0.000000 0.000000 
9.792119 4.552177 9.778786 -2.099314 0.078854 -112.738893 -9.386076 6.709651 23.390354 4.371051 8.841932 24.098468 4.222961 3.942735 -33.800933 4.488300 12.783300 38.562700 10.066070 -17.669194 43.606202 -2.371067 -0.657456 -4.189109 -6.439340 -10.158825 -47.165309 -6.420700 -14.824000 46.647600 -14.538478 3.127588 27.849246 -1.098393 0.905993 -21.323103 21.636190 6.558232 -13.973455 3.721800 1.529700 -1.772300 -50.804747 -8.446062 -55.355736 123.925609 -48.776065 -77.439887 0.183290 2.658847 -29.699348 -7.125000 0.000000 0.000000 69.840496 -16.058806 -7.511639 -139.322047 40.757917 -98.738195 -1.105365 -0.956433 -20.516240 7.125000 0.000000 0.000000 
9.794088 4.548239 9.786571 -1.961977 -0.084375 -112.836536 -8.921704 7.003759 23.478340 4.335241 8.812319 24.041280 4.041853 2.683128 -34.500141 4.648300 12.976400 39.280300 10.222696 -17.633397 43.620028 -2.378975 -0.665558 -4.163591 -6.430889 -10.198932 -47.077802 -6.450000 -14.850600 46.761900 -14.025818 3.093717 28.144521 -1.273505 0.930794 -21.792164 22.660186 6.633808 -12.185488 3.873200 1.683400 -1.421400 -51.123115 -8.376679 -55.883574 123.920274 -48.910903 -77.259351 0.185819 2.584761 -28.327103 -7.125000 0.000000 0.000000 69.513316 -16.110291 -8.466122 -139.298788 40.784900 -98.625408 -1.085281 -0.998145 -21.339968 7.125000 0.000000 0.000000 
9.796414 4.546450 9.786840 -1.838175 -0.112104 -112.861679 -8.717034 7.177486 23.506753 4.312596 8.798782 24.011303 3.943233 1.921641 -35.035136 4.558600 12.868800 38.879300 10.305464 -17.556307 43.616151 -2.391851 -0.662192 -4.151941 -6.423240 -10.176000 -47.000898 -6.450900 -14.851500 46.765600 -13.975925 3.203371 28.024552 -1.293481 0.985787 -21.409582 21.379005 6.759891 -14.980301 3.690800 1.556900 -1.981700 -51.043357 -8.746128 -55.888436 123.840193 -48.945616 -77.041180 0.227821 2.491225 -27.707419 -7.125000 0.000000 0.000000 69.370586 -16.122446 -9.767426 -139.265047 40.687497 -98.549833 -1.076549 -1.036024 -22.317269 7.125000 0.000000 0.000000 
9.797130 4.545913 9.778428 -1.756905 -0.043595 -112.793042 -8.638583 7.326266 23.482245 4.285336 8.806556 23.977101 3.932030 1.733857 -35.308174 4.197600 12.418800 37.230000 10.390624 -17.507814 43.590333 -2.404890 -0.660674 -4.140499 -6.404880 -10.072943 -46.907516 -6.471900 -14.870500 46.847400 -14.399305 3.405355 27.509111 -1.456476 1.034389 -21.134869 21.941000 7.044072 -16.598084 3.856900 1.498400 -2.352100 -50.841918 -9.012501 -55.148772 123.857408 -48.956427 -76.978432 0.295418 2.374808 -27.994822 -7.125000 0.000000 0.000000 69.412218 -16.508007 -11.182751 -139.318632 40.533763 -98.545244 -1.066367 -1.085925 -23.601059 7.125000 0.000000 0.000000 
9.798204 4.544302 9.776370 -1.679784 -0.007758 -112.825206 -8.634229 7.284718 23.648289 4.274752 8.781465 23.914515 3.871671 1.168367 -35.830209 4.397600 12.671500 38.151100 10.484446 -17.493998 43.644829 -2.395467 -0.678617 -4.105763 -6.381888 -10.197435 -46.663276 -6.457500 -14.857500 46.791200 -14.661758 3.530676 27.179288 -1.553600 1.065935 -21.017127 22.154386 7.257454 -17.632445 3.937800 1.487400 -2.599700 -50.816995 -9.014048 -54.004775 124.027010 -48.863777 -77.234283 0.399113 2.291395 -29.630877 -7.125000 0.000000 0.000000 69.348322 -16.726222 -12.421291 -139.339389 40.431989 -98.515324 -1.047225 -1.140292 -24.840067 7.125000 0.000000 0.000000 
9.799994 4.542602 9.777981 -1.603767 0.003570 -112.984207 -8.666455 7.211969 23.900817 4.261914 8.765710 23.865419 3.871304 0.902191 -36.297180 4.756000 13.103600 39.757400 10.541016 -17.495081 43.808357 -2.368521 -0.705589 -4.057248 -6.367068 -10.459068 -46.402560 -6.307700 -14.720000 46.204400 -14.747245 3.588498 27.072005 -1.581244 1.079651 -20.973707 21.772487 7.397315 -18.573542 3.890300 1.501200 -2.822000 -50.959246 -8.736239 -52.676206 124.352154 -48.686514 -77.734279 0.404314 2.254817 -32.157337 -7.125000 0.000000 0.000000 69.224417 -16.719452 -13.476256 -139.277590 40.401837 -98.433606 -1.026599 -1.177298 -25.758965 7.125000 0.000000 0.000000 
9.803036 4.542065 9.772612 -1.565434 0.066582 -112.936507 -8.811016 7.121019 23.905658 4.269462 8.758768 23.840611 3.903775 0.858706 -36.630658 5.029300 13.416700 40.949100 10.591923 -17.455451 43.698271 -2.334530 -0.731687 -4.052956 -6.396801 -11.448210 -45.964856 -5.794800 -14.226500 44.152700 -15.140335 3.659954 26.763023 -1.544153 1.074559 -20.847366 21.510158 7.545044 -19.224272 3.843500 1.539500 -2.965100 -51.191180 -8.252705 -51.088856 124.605589 -48.370055 -78.596748 0.383042 2.509476 -35.001890 -7.125000 0.000000 0.000000 69.138314 -16.651190 -14.353113 -139.131230 40.439640 -98.283253 -1.009507 -1.197517 -26.438969 7.125000 0.000000 0.000000 
9.805184 4.541170 9.774044 -1.587287 0.176075 -112.937707 -8.843633 7.154683 23.896642 4.261263 8.781496 23.861603 3.898712 0.824822 -36.700581 5.171300 13.574100 41.557600 10.529285 -17.465380 43.779519 -2.331072 -0.732024 -4.042249 -6.376254 -11.239777 -45.935327 -5.747400 -14.179000 43.959100 -15.824825 3.827386 26.323884 -1.731503 1.045324 -20.665606 22.042692 7.734920 -20.082931 3.548200 1.483700 -2.850700 -50.983839 -8.231372 -49.593089 124.517749 -48.367974 -78.581633 0.417320 2.505776 -36.773236 -7.125000 0.000000 0.000000 69.375561 -16.679890 -15.394531 -138.988868 40.475882 -98.137829 -0.991235 -1.231547 -26.943071 7.125000 0.000000 0.000000 
9.807600 4.540365 9.770464 -1.611716 0.278782 -112.922932 -8.910815 7.117437 23.854841 4.268487 8.819259 23.938262 3.937958 0.992718 -36.766819 5.044800 13.434100 41.016000 10.448228 -17.453627 43.836336 -2.341332 -0.721474 -4.040019 -6.346098 -10.820466 -45.959259 -5.854700 -14.286000 44.395700 -16.486954 3.956119 25.960759 -1.899357 0.999295 -20.465684 22.307243 7.847294 -20.572701 3.610800 1.465900 -2.954600 -50.933344 -8.289669 -48.182300 124.710598 -48.221582 -79.075362 0.449237 2.551824 -37.234423 -7.125000 0.000000 0.000000 69.672051 -16.669297 -16.420536 -138.920083 40.477341 -98.067143 -0.974807 -1.260081 -27.401899 7.125000 0.000000 0.000000 
9.810284 4.540454 9.771538 -1.573682 0.201387 -113.032453 -8.653381 7.363511 23.898971 4.240497 8.856170 24.023541 3.882894 0.827852 -36.609737 5.007100 13.391700 40.853200 10.507237 -17.463446 43.901741 -2.340310 -0.729418 -4.011931 -6.318400 -10.697575 -45.840420 -5.813700 -14.245300 44.229200 -16.243875 3.875637 26.113187 -2.020001 0.963170 -20.454855 22.605389 8.139701 -20.777426 3.672000 1.574800 -2.998600 -51.336207 -7.915523 -47.109762 124.316071 -48.284475 -78.858262 0.555413 2.615708 -36.618386 -7.125000 0.000000 0.000000 69.536454 -16.362415 -17.030520 -138.842838 40.520640 -97.974745 -0.961811 -1.260372 -27.768673 7.125000 0.000000 0.000000 
9.813058 4.540007 9.770912 -1.541909 0.117033 -113.196083 -8.451624 7.530901 24.070770 4.200815 8.849793 23.964606 3.875485 0.880019 -36.467532 4.873100 13.239400 40.271500 10.514747 -17.475126 44.004266 -2.328073 -0.741190 -3.979606 -6.290955 -10.692979 -45.642267 -5.755900 -14.187500 43.993900 -15.840211 3.783744 26.398694 -2.136552 0.935172 -20.479563 22.509198 8.358061 -21.142130 3.680100 1.671500 -3.066200 -51.872149 -7.766560 -46.256627 124.006207 -48.366822 -78.659728 0.712285 2.595596 -35.280272 -7.125000 0.000000 0.000000 69.339745 -15.966497 -17.648624 -138.772084 40.570342 -97.873371 -0.941091 -1.279724 -28.005536 7.125000 0.000000 0.000000 
9.816101 4.538754 9.770285 -1.520979 0.035964 -113.375022 -8.277694 7.619547 24.298225 4.163218 8.827992 23.868755 3.858381 0.870728 -36.361702 4.790100 13.143500 39.908000 10.531146 -17.500057 44.116342 -2.303899 -0.762923 -3.937807 -6.263010 -10.862062 -45.321446 -5.659600 -14.090200 43.599800 -15.687547 3.747335 26.560913 -2.258574 0.891616 -20.425862 21.901621 8.407267 -21.926148 3.597100 1.686700 -3.220900 -52.375841 -7.513002 -45.277898 123.774367 -48.403470 -78.551251 0.873915 2.542382 -34.242481 -7.125000 0.000000 0.000000 69.432161 -15.676804 -18.399715 -138.759112 40.576397 -97.838985 -0.920006 -1.312466 -28.117062 7.125000 0.000000 0.000000 
9.820127 4.540007 9.755700 -1.440022 -0.116316 -113.547190 -8.004978 7.721560 24.592465 4.113213 8.797618 23.740621 3.847360 0.911955 -36.211509 4.673900 13.006900 39.394100 10.581651 -17.502822 44.231935 -2.250243 -0.804131 -3.881477 -6.261023 -11.701973 -44.727711 -5.177400 -13.580800 41.583600 -15.673012 3.696097 26.694231 -2.303749 0.814693 -20.364189 20.760398 8.339448 -22.695316 3.380900 1.698900 -3.364600 -52.991452 -6.841515 -44.273737 123.802526 -48.319171 -78.748644 1.017170 2.466299 -34.208883 -7.125000 0.000000 0.000000 69.597055 -15.354362 -18.968719 -138.728489 40.604703 -97.817960 -0.910931 -1.317198 -28.098988 7.125000 0.000000 0.000000 
